<?xml version="1.0" encoding="UTF-8" standalone="no"?>
<!-- Created with Inkscape (http://www.inkscape.org/) -->

<svg
   width="210mm"
   height="297mm"
   viewBox="0 0 210 297"
   version="1.1"
   id="svg1"
   xml:space="preserve"
   inkscape:version="1.3.2 (091e20e, 2023-11-25)"
   sodipodi:docname="logo.svg"
   xmlns:inkscape="http://www.inkscape.org/namespaces/inkscape"
   xmlns:sodipodi="http://sodipodi.sourceforge.net/DTD/sodipodi-0.dtd"
   xmlns="http://www.w3.org/2000/svg"
   xmlns:svg="http://www.w3.org/2000/svg"><sodipodi:namedview
     id="namedview1"
     pagecolor="#ffffff"
     bordercolor="#000000"
     borderopacity="0.25"
     inkscape:showpageshadow="2"
     inkscape:pageopacity="0.0"
     inkscape:pagecheckerboard="0"
     inkscape:deskcolor="#d1d1d1"
     inkscape:document-units="mm"
     inkscape:zoom="0.70886575"
     inkscape:cx="351.26538"
     inkscape:cy="607.30822"
     inkscape:window-width="1504"
     inkscape:window-height="1032"
     inkscape:window-x="0"
     inkscape:window-y="25"
     inkscape:window-maximized="0"
     inkscape:current-layer="layer1" /><defs
     id="defs1" /><g
     inkscape:label="Layer 1"
     inkscape:groupmode="layer"
     id="layer1"><path
       style="fill:#000000"
       d="m 85.548727,200.48505 c -5.99316,-0.51514 -9.48498,-1.69826 -12.15751,-4.11928 -2.2143,-2.0059 -2.97892,-3.63881 -2.98865,-6.38249 -0.0118,-3.32748 2.13522,-6.46715 5.36604,-7.84698 2.71155,-1.15806 5.57052,-1.42758 9.62637,-0.9075 6.07522,0.77903 15.831713,3.64181 24.535943,7.19942 6.14568,2.51188 9.63348,3.37499 14.25208,3.5269 2.80969,0.0924 5.8713,-0.20947 8.05394,-0.79413 1.54305,-0.41333 1.08227,-0.43634 -0.93398,-0.0466 -5.14217,0.99391 -11.27334,0.45316 -16.75648,-1.47788 -3.40081,-1.19768 -5.20741,-1.88754 -5.21255,-1.99045 -0.003,-0.0554 1.86878,-0.68068 4.159,-1.38948 2.29022,-0.70879 6.28619,-1.95174 8.87993,-2.76209 6.45561,-2.01692 8.03458,-2.3735 10.63585,-2.40189 4.81451,-0.0525 8.38719,1.74085 10.18727,5.11377 0.65883,1.23448 0.73113,1.52593 0.80824,3.25823 0.093,2.0892 -0.24959,3.40401 -1.3137,5.04186 -2.7752,4.27149 -10.29932,6.51899 -19.51496,5.82922 -3.30561,-0.24742 -6.47194,-0.72723 -8.52874,-1.2924 -0.77261,-0.2123 -1.65307,-0.37403 -1.9566,-0.3594 -1.20652,0.0581 -2.47881,0.0667 -2.85964,0.0192 -0.22074,-0.0275 -1.55527,0.16287 -2.96562,0.42313 -7.064593,1.30367 -15.616263,1.84884 -21.316233,1.3589 z m -15.73212,-24.79797 c -3.61537,-0.43489 -9.026035,-2.06593 -11.817674,-3.56243 -3.653867,-1.9587 -5.656363,-5.08304 -5.075252,-7.91853 0.367589,-1.79363 1.151498,-2.97683 2.442657,-3.68684 0.931353,-0.51215 1.697438,-0.48243 2.284174,0.0886 0.424045,0.41271 0.531137,0.43963 0.943631,0.23717 0.255916,-0.12561 1.058515,-0.22969 1.783554,-0.2313 2.572361,-0.006 4.368209,1.26144 4.71919,3.32984 0.076,0.44801 0.2219,0.96147 0.32418,1.14102 0.84076,1.47588 4.53421,1.36095 8.04979,-0.25049 2.30412,-1.05613 3.68319,-2.07243 7.46232,-5.49928 2.09706,-1.90158 4.24925,-3.7757 4.78262,-4.16471 0.91601,-0.66808 1.00502,-0.69497 1.60541,-0.48495 4.15281,1.45262 8.59569,2.49459 12.977243,3.0435 3.75678,0.47064 10.79967,0.42164 14.6204,-0.10173 3.55064,-0.48637 7.50553,-1.38778 10.43699,-2.37884 l 2.22062,-0.75074 1.4619,1.08565 c 0.80404,0.5971 2.88496,2.3903 4.62426,3.98488 1.7393,1.59457 3.71438,3.27352 4.38905,3.73099 2.31479,1.56955 6.11191,2.99787 7.96972,2.99787 1.76987,0 3.24211,-0.82907 3.24211,-1.82574 0,-1.09932 0.44256,-1.97748 1.36615,-2.7108 1.3488,-1.07092 3.4754,-1.5032 5.016,-1.01961 0.83695,0.26272 0.87839,0.25768 1.34544,-0.16361 1.67706,-1.51273 4.71435,1.33917 4.71435,4.4266 0,2.20222 -1.26997,4.40695 -3.44611,5.98263 -2.5051,1.81386 -7.2654,3.60499 -11.69355,4.39988 -3.26047,0.58528 -7.77611,0.57483 -10.14557,-0.0235 -2.08041,-0.52533 -4.3086,-1.50166 -4.68283,-2.0519 -0.15226,-0.22386 -1.16834,-2.78447 -2.25796,-5.69025 -1.08962,-2.90577 -2.01268,-5.25476 -2.05125,-5.21998 -0.21944,0.19794 3.04368,9.85779 4.05909,12.01618 0.29781,0.63302 0.49315,1.19453 0.4341,1.2478 -0.0861,0.0777 -2.94458,-2.07726 -3.32753,-2.50854 -0.0552,-0.0622 -0.93856,-0.68017 -1.96305,-1.37339 -4.64815,-3.14515 -9.42444,-5.05419 -14.93717,-5.97027 -2.52829,-0.42014 -7.36634,-0.36753 -9.93019,0.10799 -3.637153,0.67458 -7.366003,1.97929 -10.377583,3.63108 -2.36219,1.29561 -6.23762,3.95769 -8.14821,5.59709 -0.43966,0.37726 -0.79938,0.66795 -0.79938,0.64597 0,-0.022 0.21592,-0.48036 0.47983,-1.01863 1.01366,-2.06747 4.31289,-12.18083 4.05081,-12.41723 -0.0405,-0.0365 -1.00872,2.48411 -2.15162,5.6014 l -2.07801,5.66781 -1.40473,0.66872 c -2.22254,1.05803 -4.16279,1.46038 -7.32469,1.51892 -1.49002,0.0276 -3.37698,-0.0302 -4.19323,-0.12837 z m -8.638944,-9.57666 c 0.906106,-0.43742 1.255131,-1.90726 0.687854,-2.89676 -0.318565,-0.55568 -1.226524,-1.08469 -1.842894,-1.07374 -1.439011,0.0256 -2.541066,1.89624 -1.842735,3.12795 0.522491,0.92157 1.983479,1.33219 2.997775,0.84255 z m 94.659807,-0.2209 c 1.04196,-1.00331 0.96782,-2.42552 -0.17151,-3.29027 -0.78034,-0.59227 -1.58613,-0.59476 -2.36014,-0.007 -1.1607,0.88097 -1.29085,2.33607 -0.28971,3.2391 0.70123,0.63253 2.19308,0.66343 2.82136,0.0585 z m -11.99265,-5.76643 c -4.40739,-2.09988 -6.92711,-4.5225 -7.85999,-7.55711 -0.39938,-1.29916 -0.48215,-2.65597 -0.17254,-2.82856 0.10713,-0.0597 0.47867,0.0238 0.82565,0.18568 1.42026,0.66248 3.7158,2.96827 5.94634,5.9729 1.27009,1.71086 3.33987,4.96568 3.22412,5.07008 -0.0369,0.0333 -0.92054,-0.34604 -1.96358,-0.84299 z m -74.604963,0.33498 c 0.16036,-0.22341 0.86104,-1.29844 1.55707,-2.38895 2.87349,-4.50202 6.59574,-8.42551 7.78406,-8.2049 0.28289,0.0525 0.33686,0.24149 0.29814,1.0438 -0.0832,1.72427 -1.28405,4.26148 -2.71048,5.7269 -1.20988,1.24295 -3.88969,2.90028 -6.14448,3.80005 l -1.07586,0.42932 z m -4.461135,-1.34427 c 0,-0.0679 0.699855,-1.06575 1.555245,-2.2174 2.11042,-2.84139 5.96204,-6.36062 7.97688,-7.28851 0.77261,-0.3558 1.61382,-0.70413 1.86936,-0.77407 l 0.46462,-0.12715 -0.44323,0.78525 c -1.33978,2.37365 -4.25102,5.51217 -6.63211,7.14985 -1.12484,0.77366 -4.43237,2.59553 -4.712069,2.59553 -0.04328,0 -0.0787,-0.0556 -0.0787,-0.1235 z m 82.475198,-1.01239 c -3.43996,-1.8576 -7.11568,-5.41408 -8.9259,-8.63633 -0.27669,-0.49252 -0.50308,-0.98131 -0.50308,-1.0862 0,-0.44788 3.45211,1.50663 5.09562,2.88503 1.17318,0.98394 3.30476,3.26802 4.56926,4.89617 1.11405,1.43444 2.05363,2.88504 1.9369,2.99033 -0.0474,0.0428 -1.02518,-0.42928 -2.1728,-1.049 z m 1.15004,-5.10176 c -1.52128,-0.63228 -3.41685,-1.5035 -4.21238,-1.93604 -2.18981,-1.19064 -5.49676,-4.31644 -5.02079,-4.74577 0.22415,-0.20219 1.75054,-0.12033 2.9767,0.15963 3.59154,0.82002 6.39202,2.96046 8.70151,6.65065 0.35827,0.57245 0.57704,1.03639 0.48616,1.03098 -0.0909,-0.005 -1.40992,-0.52717 -2.9312,-1.15945 z m -85.010903,0.30948 c 1.208513,-1.81027 2.56542,-3.41631 3.56594,-4.22068 1.8455,-1.4837 4.47379,-2.48363 7.30169,-2.77794 1.16322,-0.12106 1.18898,0.008 0.23521,1.18017 -1.2468,1.53205 -3.44078,3.17993 -5.50284,4.13315 -1.6489,0.76222 -5.687156,2.3641 -5.959785,2.3641 -0.05135,0 0.110549,-0.30546 0.359785,-0.6788 z m 38.174503,-6.82227 c -1.730853,-0.48818 -3.106313,-1.64245 -2.686793,-2.25473 0.12187,-0.17786 0.40793,-0.11501 1.239583,0.27236 1.50281,0.69998 3.66936,0.72895 4.97438,0.0665 1.11264,-0.56478 1.65657,-1.43213 1.58097,-2.52101 l -0.0559,-0.80565 -1.74588,-0.66893 c -2.17199,-0.83219 -2.82861,-1.24866 -3.25925,-2.06724 -0.32033,-0.60889 -0.31895,-0.68033 0.0254,-1.31591 l 0.36414,-0.67206 h 5.11725 c 4.606,0 5.15233,0.0316 5.46843,0.31677 0.49448,0.44603 0.43638,1.20572 -0.15193,1.98667 -0.37851,0.50244 -0.9874,0.8845 -2.45829,1.54248 l -1.95516,0.87461 0.0116,0.83802 c 0.0161,1.16744 0.82261,2.19159 2.06681,2.6247 1.29303,0.45012 3.26035,0.40768 4.51926,-0.0975 1.21139,-0.48609 1.32905,-0.48723 1.32905,-0.0128 0,0.90348 -2.50506,2.15427 -4.31454,2.15427 -1.0729,0 -2.90291,-0.58987 -3.6949,-1.19099 l -0.57816,-0.43882 -1.03455,0.62798 c -1.65167,1.00258 -3.05846,1.22159 -4.7615,0.74127 z m -39.574106,-2.30078 c 1.217928,-2.12053 3.693313,-4.37441 5.801643,-5.28247 1.64936,-0.71038 3.66851,-1.25151 3.77061,-1.01051 0.0354,0.0835 -0.31448,0.80861 -0.77747,1.61133 -1.20295,2.08567 -3.1649,3.8379 -5.40749,4.82948 -0.938158,0.41482 -2.112115,0.84731 -2.608789,0.96109 -0.496674,0.11379 -1.070344,0.2509 -1.274823,0.30471 -0.301622,0.0794 -0.207963,-0.1874 0.496319,-1.41363 z m 89.577826,1.12622 c -2.49345,-0.80166 -4.95227,-2.20897 -6.46091,-3.69792 -1.03745,-1.02391 -2.67189,-3.61408 -2.4225,-3.83904 0.0765,-0.069 0.89637,0.0876 1.82199,0.34788 3.26869,0.91926 6.32325,3.26833 7.97785,6.13528 0.91316,1.58222 0.87252,1.62896 -0.91643,1.0538 z m -27.8036,-3.64434 c -3.19993,-0.42474 -5.47426,-2.01866 -7.19703,-5.04389 -0.55535,-0.97522 -1.30162,-2.53793 -1.65837,-3.47268 -0.54947,-1.43969 -0.64972,-1.96247 -0.65566,-3.41917 -0.006,-1.48452 0.0644,-1.85573 0.51524,-2.71519 1.12671,-2.14782 3.06741,-3.13095 5.34337,-2.70686 2.52779,0.47102 5.91516,2.56639 9.39303,5.81039 2.17059,2.02462 2.86584,3.16469 3.03111,4.97038 0.13613,1.48734 -0.0941,2.35326 -0.98,3.68565 -1.47736,2.22198 -4.46953,3.33233 -7.79169,2.89137 z m 0.3835,-7.39764 c 1.29409,-0.5955 2.15192,-2.2157 1.63468,-3.08746 -0.30331,-0.51121 -0.47993,-0.45775 -0.85945,0.26013 -0.6137,1.16085 -2.23659,1.71515 -3.91206,1.33616 -0.71571,-0.16189 -1.20333,-0.44902 -1.98186,-1.16702 -0.56793,-0.52377 -1.08718,-0.90307 -1.15389,-0.8429 -0.25685,0.23168 -0.10363,1.36182 0.27551,2.03218 0.41633,0.7361 1.27202,1.39402 2.30221,1.77011 0.85405,0.31179 2.68758,0.16233 3.69486,-0.3012 z m -37.870333,7.04719 c -4.42105,-1.43458 -5.79947,-5.88371 -2.94439,-9.50368 1.11535,-1.41416 4.60632,-4.42467 6.67547,-5.75674 3.47473,-2.23693 6.27891,-2.37338 8.40356,-0.40893 1.979933,1.83065 2.284533,4.13679 1.00261,7.59086 -1.07243,2.88959 -2.17261,4.69208 -3.7261,6.10467 -1.42624,1.29689 -2.17748,1.71875 -3.72162,2.0899 -1.51032,0.36303 -4.39438,0.30418 -5.68953,-0.11608 z m 7.65161,-6.70883 c 1.53407,-0.38427 2.75381,-1.77995 2.75381,-3.15102 0,-0.82547 -0.3407,-0.82134 -1.07881,0.0131 -0.70358,0.79539 -2.34366,1.51556 -3.4569,1.51796 -1.04725,0.002 -2.06501,-0.59325 -2.55526,-1.49511 -0.46166,-0.84928 -0.73541,-0.71718 -0.73541,0.35486 0,2.12554 2.39773,3.43027 5.07257,2.76024 z m -34.973351,4.77766 c -2.25877,-0.32089 -7.233633,-1.58374 -8.003392,-2.03163 -0.352715,-0.20523 1.198673,-0.6235 4.491555,-1.21097 3.262839,-0.58212 7.524033,-0.61108 9.851208,-0.0669 2.59955,0.6078 3.36185,0.70779 3.66516,0.48073 0.15003,-0.11231 0.46632,-0.29028 0.70289,-0.39549 0.23657,-0.10521 0.51926,-0.37312 0.62821,-0.59536 0.16397,-0.33446 0.35871,-0.40406 1.1305,-0.40406 0.81868,0 0.94337,0.0517 1.02233,0.42433 0.0831,0.39197 0.0198,0.42665 -0.82948,0.45463 -1.31079,0.0432 -2.20211,0.35169 -2.97682,1.03036 -0.96411,0.84458 -3.23383,1.8674 -4.814299,2.1695 -1.256198,0.24011 -3.688109,0.31251 -4.867862,0.14491 z m 90.888724,-0.12922 c -1.16341,-0.30426 -3.13854,-1.24896 -4.02084,-1.92318 -0.56347,-0.43058 -0.60988,-0.51628 -0.27601,-0.50974 0.22075,0.004 1.14919,-0.20131 2.0632,-0.45698 4.15593,-1.1625 9.12928,-1.03754 14.2763,0.35869 1.2133,0.32913 1.6096,0.50527 1.40473,0.62433 -0.49358,0.28685 -4.42949,1.38891 -6.10499,1.7094 -2.12926,0.40728 -6.1288,0.51486 -7.34239,0.19748 z m -6.8053,-3.18945 c -0.71742,-0.0652 -1.19152,-0.13259 -1.05355,-0.14977 0.13796,-0.0172 0.25084,-0.19415 0.25084,-0.39327 0,-0.30569 0.13379,-0.36202 0.85978,-0.36202 0.7425,0 0.90829,0.0741 1.2154,0.54303 0.1956,0.29868 0.2828,0.52898 0.19378,0.5118 -0.089,-0.0172 -0.74883,-0.0846 -1.46625,-0.14977 z m -79.886196,-1.25863 c -1.969297,-0.32299 -5.431472,-1.96062 -7.508388,-3.5515 l -0.802706,-0.61487 0.637677,-0.003 c 1.888564,-0.008 5.761141,0.73166 7.887983,1.50656 1.411092,0.51411 3.817967,1.79399 4.326077,2.30044 0.34635,0.34521 0.33567,0.3536 -0.4496,0.3536 -0.4424,0 -1.33687,0.0359 -1.9877,0.0797 -0.650825,0.0438 -1.597332,0.0118 -2.103343,-0.0712 z m 83.264796,-0.24422 c 0.44476,-0.48339 3.20216,-2.12075 4.32737,-2.56961 1.32064,-0.52682 2.92285,-0.90347 4.93664,-1.16051 2.42489,-0.30951 3.43383,-0.34834 3.35279,-0.12903 -0.14239,0.3853 -4.28488,2.77062 -5.86124,3.375 -1.50664,0.57765 -1.77158,0.61988 -4.30612,0.68638 -2.39029,0.0627 -2.67183,0.0395 -2.44944,-0.20223 z m -77.585273,-1.13185 c -1.80061,-0.48021 -3.637,-1.25466 -5.053585,-2.13122 -1.020184,-0.63128 -3.889443,-2.99631 -4.735664,-3.90344 l -0.565382,-0.60608 1.693844,0.13337 c 3.662135,0.28834 6.387277,1.23156 8.389747,2.90383 1.25622,1.04908 2.65856,2.71596 3.03371,3.60598 0.18324,0.43473 0.15823,0.45958 -0.4533,0.45047 -0.35597,-0.005 -1.39519,-0.20911 -2.30937,-0.45291 z m 73.805323,0.36602 c 0,-0.0531 0.21986,-0.48788 0.48857,-0.9662 1.00873,-1.79558 2.95483,-3.74161 4.62868,-4.62853 1.47991,-0.78415 5.23954,-1.54925 7.61289,-1.54925 h 0.59975 l -0.99584,0.91723 c -1.9368,1.78391 -5.30008,4.05138 -7.51782,5.06839 -1.58016,0.72463 -4.81623,1.50294 -4.81623,1.15836 z m -68.229993,-6.85958 c -6.99788,-2.21409 -10.995442,-7.01878 -10.553046,-12.68377 0.151955,-1.94582 0.567175,-3.33382 1.516196,-5.06836 1.84631,-3.37452 4.73463,-5.55863 8.65261,-6.543 1.74899,-0.43942 5.60074,-0.43638 7.39187,0.006 4.26198,1.05225 7.40317,3.96384 8.50837,7.88644 l 0.27816,0.98725 -1.12425,0.60859 c -3.11911,1.68845 -7.20129,5.21875 -9.31688,8.05733 -1.36919,1.83709 -2.90586,4.46126 -3.54747,6.058 -0.25003,0.62223 -0.46508,1.12527 -0.47788,1.11786 -0.0128,-0.007 -0.61026,-0.19919 -1.32768,-0.42618 z m 64.015783,0.064 c 0,-0.35202 -2.15529,-4.29316 -3.18314,-5.82064 -2.3221,-3.45088 -6.38854,-7.15325 -9.91099,-9.02366 -0.63464,-0.33699 -1.15268,-0.73623 -1.15121,-0.88719 0.006,-0.63915 1.2324,-3.3892 1.90231,-4.26657 2.47555,-3.24219 5.61972,-4.66472 10.33627,-4.67649 2.69242,-0.007 4.62008,0.40372 6.91429,1.47221 2.01553,0.9387 4.56748,3.28638 5.57795,5.13149 2.46403,4.49928 1.98752,9.14834 -1.34788,13.15063 -1.69749,2.03689 -4.12149,3.59193 -7.15653,4.59105 -1.7548,0.57767 -1.98107,0.61527 -1.98107,0.32917 z m -31.90725,-19.6263 c -5.7e-4,-0.34836 0.57592,-2.66167 0.68864,-2.76334 0.0626,-0.0564 0.15724,-0.0634 0.21037,-0.0155 0.0738,0.0665 0.7059,2.76093 0.70607,3.00954 2e-5,0.0273 -0.36105,0.0273 -0.80238,0 -0.44132,-0.0273 -0.80254,-0.13111 -0.8027,-0.23071 z m -10.000553,-1.90768 c -2.20728,-1.21386 -5.7234,-4.06761 -7.35111,-5.966297 -1.25202,-1.46047 -3.67174,-4.8156 -4.36493,-6.05233 -0.58781,-1.04873 -0.5909,-1.0679 -0.129,-0.79966 0.26029,0.15115 1.10538,0.61195 1.87799,1.02399 0.7726,0.41205 2.08201,1.23765 2.9098,1.83467 0.98147,0.70785 1.52643,0.99879 1.56644,0.83626 0.0337,-0.13707 -0.0791,-0.91728 -0.25084,-1.7338 -0.41007,-1.94989 -0.40317,-1.98872 0.24057,-1.35335 2.77588,2.73977 5.04662,6.35903 5.75415,9.171387 0.23624,0.93899 0.55994,3.4101 0.44638,3.4076 -0.0169,-3.8e-4 -0.33161,-0.16619 -0.69945,-0.36847 z m 20.858513,-0.86078 c 0.24627,-2.07901 0.97663,-4.21213 2.17591,-6.355097 0.85745,-1.53216 2.86942,-4.16803 3.80649,-4.98684 0.95129,-0.83125 0.96307,-0.79832 0.5148,1.43958 -0.15954,0.79646 -0.29184,1.50919 -0.29401,1.58386 -0.009,0.31933 0.49337,0.0768 1.66042,-0.80116 1.45588,-1.09524 4.53596,-2.9433 4.68356,-2.81016 0.15065,0.13589 -1.4019,2.71213 -2.67959,4.4464 -2.78368,3.778457 -5.79213,6.473477 -9.29877,8.329997 l -0.71386,0.37794 z m -12.56401,-0.44043 c -3.34092,-2.17426 -5.229863,-5.329577 -5.653863,-9.444307 l -0.12875,-1.24947 0.81994,0.41567 c 1.757993,0.89123 3.832443,3.2068 4.666023,5.20836 0.63285,1.519587 1.39782,5.479727 1.0561,5.467277 -0.0866,-0.003 -0.42833,-0.18204 -0.75945,-0.39753 z m 4.11505,0.177 c 0.005,-0.95754 0.69125,-3.99065 1.12745,-4.983157 0.92998,-2.11608 3.37513,-4.91925 4.95713,-5.68294 0.38722,-0.18693 0.39513,-0.1471 0.28244,1.42187 -0.25795,3.59125 -2.32135,7.072807 -5.30064,8.943707 -0.93805,0.58907 -1.06808,0.62572 -1.06638,0.30052 z m -2.37643,-2.19225 c -0.86128,-2.14702 -1.09122,-3.481397 -1.08047,-6.270097 0.0101,-2.63161 0.4576,-5.3977 1.31767,-8.14557 0.47414,-1.51483 0.4853,-1.53022 0.72221,-0.99557 0.3746,0.8454 1.16262,3.82981 1.43386,5.43038 0.36869,2.17568 0.32888,6.26222 -0.0753,7.73038 -0.38896,1.412807 -1.37119,3.763927 -1.57245,3.763927 -0.0761,0 -0.41158,-0.68105 -0.7455,-1.51345 z m -17.629333,0.99626 c -0.57235,-0.1784 -1.39197,-0.53407 -1.82136,-0.79039 -1.89523,-1.13131 -5.1023,-3.968217 -4.79715,-4.243467 0.16265,-0.14671 3.95059,1.68762 5.04444,2.442787 0.94327,0.65123 3.11782,2.93298 2.78407,2.92134 -0.0931,-0.003 -0.63764,-0.15187 -1.21,-0.33027 z m 35.580593,-0.0711 c 1.34367,-2.05969 3.47207,-3.518767 7.15263,-4.903317 0.70767,-0.26621 0.74303,-0.26441 0.5689,0.0291 -0.28251,0.47615 -3.66145,3.364497 -4.57139,3.907657 -0.72555,0.43311 -2.72075,1.19286 -3.13257,1.19286 -0.0909,0 -0.0988,-0.10182 -0.0176,-0.22627 z"
       id="path1" /></g></svg>
