<?xml version="1.0" standalone="no"?>
<!DOCTYPE svg PUBLIC "-//W3C//DTD SVG 20010904//EN"
 "http://www.w3.org/TR/2001/REC-SVG-20010904/DTD/svg10.dtd">
<svg version="1.0" xmlns="http://www.w3.org/2000/svg"
 width="1024.000000pt" height="1024.000000pt" viewBox="0 0 1024.000000 1024.000000"
 preserveAspectRatio="xMidYMid meet">
<metadata>
Created by potrace 1.16, written by Peter Selinger 2001-2019
</metadata>
<g transform="translate(0.000000,1024.000000) scale(0.100000,-0.100000)"
fill="#000000" stroke="none">
<path d="M5106 8328 c-13 -45 -57 -256 -68 -318 -16 -101 -16 -340 1 -415 18
-84 72 -245 81 -245 9 0 63 167 85 260 34 150 7 424 -72 713 -5 20 -22 23 -27
5z"/>
<path d="M3960 7991 c0 -11 119 -202 204 -326 75 -110 223 -261 335 -341 45
-32 92 -66 103 -74 21 -14 21 -14 14 68 -10 112 -38 209 -91 317 -61 122 -234
359 -250 343 -4 -4 0 -35 8 -70 38 -154 35 -164 -36 -99 -40 36 -267 191 -280
191 -4 0 -7 -4 -7 -9z"/>
<path d="M6235 7990 c-4 -6 -47 -37 -96 -70 -49 -33 -112 -81 -140 -106 -73
-65 -74 -60 -33 144 3 18 2 32 -3 32 -14 0 -101 -102 -152 -177 -51 -77 -123
-220 -150 -299 -27 -82 -60 -263 -49 -270 5 -4 19 3 31 13 12 11 54 41 92 68
169 118 367 351 471 557 15 29 35 64 45 77 11 13 19 28 19 32 0 12 -27 11 -35
-1z"/>
<path d="M4707 7934 c-3 -3 -3 -22 -1 -42 33 -254 103 -403 247 -520 81 -67
103 -76 93 -39 -3 12 -11 54 -16 93 -31 210 -113 364 -251 469 -64 48 -63 48
-72 39z"/>
<path d="M5416 7848 c-124 -126 -170 -219 -201 -398 -8 -47 -18 -97 -21 -112
-9 -42 12 -35 90 32 110 94 168 186 210 332 13 46 27 116 30 156 6 64 5 72
-10 72 -9 0 -53 -37 -98 -82z"/>
<path d="M3850 7687 c0 -14 146 -160 221 -220 51 -41 188 -102 201 -89 4 4
-30 46 -75 94 -70 73 -101 96 -209 157 -70 39 -130 71 -133 71 -3 0 -5 -6 -5
-13z"/>
<path d="M6235 7629 c-71 -39 -141 -80 -153 -92 -35 -32 -122 -143 -122 -155
0 -10 64 14 150 56 32 16 271 233 278 253 8 19 -28 5 -153 -62z"/>
<path d="M3472 7431 c-260 -66 -456 -278 -508 -549 -67 -351 124 -657 495
-792 45 -17 85 -30 89 -30 4 0 14 20 21 45 20 67 104 227 178 340 90 136 302
348 431 430 90 57 92 60 86 90 -13 62 -56 162 -96 223 -72 111 -166 181 -308
229 -102 35 -281 42 -388 14z"/>
<path d="M6416 7435 c-38 -8 -103 -30 -144 -50 -136 -64 -250 -208 -300 -377
-23 -77 -24 -74 60 -122 63 -37 253 -201 315 -273 116 -135 222 -305 289 -464
19 -46 36 -85 38 -86 4 -4 137 47 189 73 130 66 245 171 315 287 201 333 68
780 -283 951 -38 19 -97 42 -130 51 -84 23 -263 28 -349 10z"/>
<path d="M5110 7338 c-6 -36 -30 -149 -35 -165 -7 -21 -4 -23 28 -23 19 0 43
-3 53 -7 14 -5 16 -3 10 18 -5 13 -12 49 -18 79 -5 30 -12 65 -14 78 -2 12 -9
22 -14 22 -6 0 -10 -1 -10 -2z"/>
<path d="M4870 7124 c-239 -37 -560 -145 -560 -189 0 -21 12 -19 87 17 38 18
72 31 76 30 5 -1 20 4 35 12 15 9 61 25 102 37 72 21 90 24 155 33 17 2 43 9
58 15 15 6 31 10 35 9 8 -2 133 11 182 18 33 5 34 7 15 20 -23 17 -61 17 -185
-2z"/>
<path d="M5185 7129 c-4 -6 -4 -13 0 -17 5 -6 91 -17 195 -26 19 -2 55 -9 80
-16 25 -7 54 -14 65 -15 43 -5 150 -39 157 -49 4 -6 10 -7 14 -3 4 3 19 0 33
-7 42 -22 115 -51 116 -46 0 2 11 -3 25 -13 30 -21 50 -22 50 -3 0 27 -198
110 -360 151 -95 25 -276 55 -326 55 -23 0 -46 -5 -49 -11z"/>
<path d="M4420 6225 c-30 -9 -78 -30 -107 -48 -154 -95 -364 -298 -422 -406
-101 -190 -26 -407 167 -482 77 -31 230 -33 315 -5 159 52 269 189 358 446 28
82 33 109 33 195 1 82 -3 108 -20 146 -61 131 -187 191 -324 154z m170 -393
c-1 -43 -35 -107 -73 -136 -47 -36 -129 -52 -184 -37 -77 21 -133 86 -133 155
0 50 16 53 40 7 25 -50 64 -71 128 -71 61 0 134 35 174 84 33 40 48 39 48 -2z"/>
<path d="M5620 6225 c-49 -22 -97 -71 -128 -130 -20 -40 -27 -68 -30 -140 -5
-117 19 -210 97 -372 91 -187 183 -273 332 -308 232 -54 430 47 485 251 21 78
11 154 -32 243 -55 114 -317 347 -483 429 -87 43 -181 53 -241 27z m81 -399
c88 -97 224 -99 287 -6 30 45 46 44 50 -2 9 -105 -127 -192 -248 -158 -85 23
-169 135 -146 195 8 22 11 20 57 -29z"/>
<path d="M7410 6094 c-183 -25 -268 -58 -358 -139 -71 -64 -196 -244 -180
-260 7 -7 127 21 192 45 81 31 281 167 384 263 51 47 93 90 93 94 0 12 -18 12
-131 -3z"/>
<path d="M2672 6092 c8 -19 216 -207 269 -243 92 -62 210 -115 314 -140 96
-23 118 -21 97 9 -6 9 -25 40 -42 68 -39 67 -149 176 -214 213 -70 40 -165 67
-296 86 -128 17 -133 18 -128 7z"/>
<path d="M3543 6018 c-6 -7 -23 -69 -37 -138 -15 -69 -38 -159 -51 -200 -39
-126 -47 -215 -29 -317 21 -122 31 -157 68 -238 38 -80 134 -218 174 -249 15
-11 50 -44 77 -72 57 -60 223 -174 291 -200 39 -15 47 -15 60 -3 12 13 5 19
-59 51 -40 20 -85 48 -101 62 -17 13 -33 24 -36 23 -7 -2 -142 98 -166 123 -8
8 -35 40 -59 70 -25 30 -52 62 -60 71 -8 9 -15 21 -15 27 0 7 -4 12 -8 12 -9
0 -102 192 -102 210 0 20 20 10 34 -17 35 -65 300 -313 333 -313 7 0 13 -4 13
-10 0 -5 21 -19 48 -31 26 -12 49 -25 52 -29 6 -9 158 -80 171 -80 5 0 9 -4 9
-10 0 -5 11 -10 25 -10 14 0 25 -5 25 -11 0 -6 8 -9 18 -6 9 2 30 -3 46 -11
33 -16 238 -73 276 -77 14 -1 52 -7 85 -14 132 -24 287 -39 430 -40 146 -2
414 20 505 39 25 6 72 15 105 20 78 12 245 60 365 103 111 40 254 106 258 118
2 5 8 7 13 3 5 -3 9 0 9 6 0 6 4 9 9 6 5 -4 11 -2 13 3 1 4 28 24 58 43 105
67 270 219 292 269 7 16 17 29 22 29 5 0 15 8 22 18 11 14 11 9 0 -28 -18 -59
-47 -120 -58 -120 -5 0 -7 -3 -4 -8 8 -13 -59 -110 -118 -171 -76 -81 -147
-142 -157 -136 -4 3 -14 -3 -21 -12 -14 -19 -98 -77 -98 -68 0 3 -8 -3 -19
-14 -10 -10 -44 -31 -75 -46 -58 -28 -68 -41 -40 -52 44 -17 264 130 405 270
59 58 119 125 133 149 45 75 93 181 109 243 20 76 38 216 35 275 -3 45 -3 45
37 46 74 2 128 -12 147 -39 25 -35 161 -112 233 -133 124 -35 377 -5 592 70
40 15 79 26 88 26 8 0 15 6 15 13 0 15 -220 70 -345 87 -159 22 -328 8 -482
-39 -63 -19 -103 -18 -103 3 0 6 -12 23 -25 39 -20 22 -32 27 -70 27 -38 0
-48 -4 -52 -20 -4 -14 -14 -20 -35 -20 -16 0 -27 4 -24 9 3 5 -5 39 -18 77
-13 38 -38 131 -55 206 -18 76 -37 141 -43 144 -23 14 -29 -14 -14 -59 8 -25
17 -61 19 -79 3 -18 7 -40 10 -48 4 -8 11 -35 16 -60 6 -25 22 -79 36 -120 64
-182 54 -244 -59 -398 -250 -339 -657 -537 -1271 -617 -556 -74 -1210 61
-1567 322 -155 114 -303 272 -369 395 -29 55 -33 72 -31 129 0 36 7 79 13 95
7 16 14 36 15 44 3 19 24 79 35 102 5 10 9 26 9 35 0 18 28 155 38 183 2 8 6
30 9 48 4 33 -7 42 -24 20z"/>
<path d="M7689 5896 c-2 -2 -59 -11 -126 -20 -141 -19 -255 -52 -333 -99 -115
-68 -180 -112 -180 -123 0 -7 35 -10 108 -7 159 5 182 10 273 54 99 47 289
170 285 183 -3 11 -20 19 -27 12z"/>
<path d="M2492 5881 c4 -11 175 -127 249 -169 90 -51 193 -73 323 -69 62 2
111 7 110 13 -1 10 -93 66 -194 118 -92 47 -185 74 -335 97 -148 22 -158 22
-153 10z"/>
<path d="M5058 5682 c-25 -2 -52 -10 -58 -18 -7 -7 -20 -14 -29 -14 -9 0 -27
-9 -41 -20 -41 -31 -2 -34 75 -5 78 29 122 31 191 9 84 -26 111 -32 125 -23
17 10 17 10 -53 38 -64 25 -140 37 -210 33z"/>
<path d="M3283 5622 c-8 -18 -91 -72 -113 -72 -11 0 -66 12 -122 27 -88 22
-124 26 -243 26 -77 0 -169 -5 -205 -12 -146 -26 -310 -67 -307 -76 2 -5 55
-26 118 -47 279 -90 484 -102 639 -36 25 10 87 47 138 80 83 55 101 62 153 66
63 5 67 8 46 36 -16 22 -97 28 -104 8z"/>
<path d="M4846 5547 c-47 -47 -27 -126 43 -170 19 -12 69 -36 110 -53 76 -31
76 -31 79 -80 3 -59 -21 -104 -70 -131 -51 -28 -191 -25 -241 5 -50 29 -77 29
-77 -1 0 -32 65 -93 119 -112 91 -32 234 -7 280 48 19 24 37 21 79 -12 50 -38
92 -51 171 -51 48 0 79 6 116 24 72 34 114 86 95 116 -7 12 -18 10 -57 -10
-40 -21 -62 -25 -133 -25 -71 0 -91 4 -122 23 -49 31 -78 79 -78 131 0 42 0
42 83 80 128 59 189 136 157 197 -21 39 -57 47 -151 33 -78 -11 -200 -9 -326
7 -46 6 -54 4 -77 -19z"/>
<path d="M3250 5465 c-47 -17 -101 -39 -120 -49 -96 -50 -200 -157 -269 -276
-18 -30 -37 -63 -44 -72 -19 -29 -3 -30 77 -4 189 62 320 166 409 325 26 46
47 87 47 91 0 18 -18 16 -100 -15z"/>
<path d="M6870 5489 c0 -6 17 -43 37 -82 48 -90 137 -187 231 -248 80 -53 259
-127 272 -113 5 5 -11 41 -34 82 -106 181 -229 284 -420 348 -79 27 -86 28
-86 13z"/>
<path d="M3395 5005 c-187 -41 -303 -128 -439 -329 -32 -48 -56 -90 -52 -93 3
-3 21 1 38 10 18 9 80 37 138 62 128 56 217 108 289 170 65 56 163 173 155
186 -7 12 -57 10 -129 -6z"/>
<path d="M6700 5007 c0 -22 52 -88 118 -149 87 -80 186 -142 336 -210 71 -32
135 -63 143 -70 8 -7 17 -8 23 -2 15 15 -107 194 -189 274 -82 82 -162 129
-266 155 -76 19 -165 20 -165 2z"/>
<path d="M6630 4908 c0 -20 97 -181 152 -253 78 -102 215 -225 331 -298 100
-61 127 -75 127 -62 0 10 -121 185 -187 270 -97 124 -171 195 -290 276 -115
78 -133 87 -133 67z"/>
<path d="M3490 4842 c-108 -58 -291 -233 -382 -365 -35 -49 -78 -110 -96 -135
-19 -24 -30 -48 -25 -53 4 -4 34 9 65 29 32 20 90 57 130 82 102 63 234 201
329 344 73 109 91 147 72 145 -5 0 -46 -21 -93 -47z"/>
<path d="M3645 4807 c-69 -39 -245 -264 -358 -458 -31 -53 -63 -102 -72 -109
-14 -11 -21 -40 -11 -40 3 0 46 22 96 49 118 64 203 126 263 190 81 86 154
264 145 352 -4 41 -14 44 -63 16z"/>
<path d="M6530 4778 c1 -201 146 -389 412 -531 37 -20 76 -42 87 -49 32 -19
35 -3 8 34 -14 18 -44 67 -68 108 -133 236 -352 490 -421 490 -15 0 -18 -9
-18 -52z"/>
<path d="M4045 4529 c-27 -22 -133 -124 -235 -227 -191 -193 -286 -269 -403
-322 -195 -88 -365 -76 -383 28 -15 89 -27 118 -65 154 -62 59 -165 82 -250
56 -35 -10 -42 -9 -62 10 -53 50 -139 15 -194 -77 -103 -172 -46 -380 141
-519 134 -99 386 -195 609 -233 155 -27 374 -23 477 9 72 21 200 83 217 104 6
7 43 111 83 231 40 120 74 216 76 214 11 -11 -115 -425 -156 -512 -30 -65 -75
-198 -85 -257 -6 -31 -4 -38 9 -38 19 0 32 24 39 70 3 19 10 48 16 63 6 16 11
39 11 52 0 47 26 79 145 177 274 227 503 346 786 410 147 32 416 32 566 0 299
-65 551 -194 809 -414 118 -102 157 -145 150 -164 -2 -6 6 -47 19 -90 31 -105
35 -114 51 -114 8 0 14 8 14 18 -1 17 -49 158 -130 382 -48 134 -121 372 -116
378 5 4 34 -74 98 -260 50 -148 50 -148 102 -177 135 -76 282 -107 479 -98
272 11 571 106 763 242 78 56 126 110 165 187 27 51 33 78 37 145 6 104 -15
167 -78 236 -38 42 -52 50 -91 54 -38 4 -49 2 -66 -17 -19 -20 -24 -20 -64
-10 -60 17 -148 6 -209 -25 -63 -32 -101 -87 -111 -162 -9 -68 -28 -89 -96
-109 -81 -24 -183 -2 -318 66 -119 61 -163 97 -380 310 -110 108 -221 213
-247 234 -47 37 -47 37 -140 3 -303 -114 -564 -159 -908 -160 -311 -1 -575 41
-846 133 -82 29 -156 53 -164 56 -8 2 -37 -14 -65 -37z m-1211 -428 c51 -53
39 -153 -20 -180 -112 -51 -207 96 -116 181 46 44 94 43 136 -1z m4670 24 c41
-20 66 -63 66 -115 0 -113 -152 -140 -196 -34 -22 54 2 120 55 149 33 18 37
18 75 0z"/>
<path d="M3734 3096 c-40 -8 -89 -19 -110 -26 -239 -76 -383 -312 -340 -556
39 -225 205 -379 486 -450 322 -83 847 -68 1359 36 83 17 109 18 144 9 36 -8
51 -8 81 5 32 13 42 14 70 2 106 -44 361 -85 581 -92 358 -13 633 65 796 226
180 178 207 445 65 638 -78 106 -187 170 -337 199 -120 22 -234 13 -384 -30
-170 -50 -919 -313 -922 -324 -4 -10 161 -84 302 -136 104 -38 269 -75 370
-83 44 -4 87 -11 95 -16 22 -13 -127 0 -242 22 -136 26 -308 86 -501 174 -624
285 -1252 451 -1513 402z"/>
<path d="M10225 10 c-3 -5 -1 -10 4 -10 6 0 11 5 11 10 0 6 -2 10 -4 10 -3 0
-8 -4 -11 -10z"/>
</g>
</svg>
