<?xml version="1.0" encoding="UTF-8" standalone="no"?>
<!DOCTYPE svg PUBLIC "-//W3C//DTD SVG 1.1//EN" "http://www.w3.org/Graphics/SVG/1.1/DTD/svg11.dtd">
<svg width="100%" height="100%" viewBox="0 0 762 758" version="1.1" xmlns="http://www.w3.org/2000/svg" xmlns:xlink="http://www.w3.org/1999/xlink" xml:space="preserve" xmlns:serif="http://www.serif.com/" style="fill-rule:evenodd;clip-rule:evenodd;stroke-linejoin:round;stroke-miterlimit:2;">
    <g transform="matrix(1,0,0,1,-133.12,-133.12)">
        <rect x="0" y="0" width="1024" height="1024" style="fill:rgb(254,254,254);fill-opacity:0;fill-rule:nonzero;"/>
    </g>
    <g transform="matrix(1,0,0,1,-133.12,-133.12)">
        <path d="M507.304,143.457C513.337,143.378 519.367,143.446 525.396,143.663C531.425,143.88 537.446,144.244 543.457,144.757C549.468,145.27 555.463,145.929 561.442,146.736C567.421,147.543 573.377,148.496 579.309,149.595C585.241,150.694 591.142,151.938 597.013,153.327C602.884,154.716 608.718,156.249 614.513,157.924C620.309,159.6 626.06,161.417 631.766,163.375C637.473,165.333 643.128,167.43 648.731,169.665C654.335,171.901 659.88,174.273 665.367,176.781C670.854,179.289 676.277,181.93 681.634,184.704C686.991,187.478 692.277,190.382 697.492,193.416C702.707,196.45 707.844,199.61 712.903,202.896C717.962,206.182 722.938,209.59 727.831,213.121C732.723,216.652 737.526,220.3 742.239,224.066C746.952,227.833 751.569,231.712 756.092,235.705C760.614,239.698 765.036,243.8 769.357,248.01C773.678,252.221 777.894,256.535 782.003,260.952C786.112,265.369 790.11,269.884 793.998,274.498C797.885,279.111 801.657,283.817 805.313,288.616C808.97,293.415 812.506,298.301 815.923,303.273C819.339,308.246 822.631,313.299 825.8,318.433C828.968,323.567 832.008,328.776 834.921,334.06C837.834,339.343 840.615,344.695 843.264,350.115C845.914,355.535 848.429,361.017 850.81,366.56C853.19,372.104 855.433,377.703 857.539,383.356C859.644,389.01 861.61,394.712 863.435,400.462C865.261,406.212 866.944,412.004 868.485,417.837C870.026,423.67 871.424,429.537 872.677,435.438C873.93,441.339 875.037,447.268 875.999,453.224C876.961,459.18 877.776,465.156 878.444,471.152C879.113,477.148 879.634,483.157 880.007,489.178C880.38,495.199 880.606,501.226 880.683,507.259C880.76,513.292 880.69,519.322 880.471,525.351C880.252,531.38 879.886,537.401 879.371,543.412C878.856,549.423 878.195,555.417 877.386,561.396C876.577,567.375 875.622,573.33 874.521,579.261C873.42,585.193 872.173,591.094 870.782,596.965C869.391,602.835 867.857,608.668 866.18,614.463C864.502,620.258 862.683,626.009 860.723,631.715C858.764,637.42 856.665,643.074 854.427,648.677C852.19,654.28 849.816,659.825 847.306,665.311C844.797,670.797 842.154,676.218 839.377,681.575C836.601,686.931 833.695,692.216 830.66,697.43C827.625,702.644 824.463,707.78 821.175,712.838C817.887,717.897 814.477,722.871 810.945,727.762C807.413,732.653 803.763,737.455 799.995,742.167C796.227,746.878 792.346,751.495 788.351,756.016C784.356,760.537 780.253,764.958 776.042,769.277C771.83,773.596 767.515,777.81 763.096,781.918C758.677,786.026 754.161,790.023 749.546,793.909C744.931,797.795 740.224,801.565 735.424,805.22C730.624,808.875 725.737,812.409 720.763,815.824C715.79,819.239 710.735,822.529 705.6,825.696C700.465,828.863 695.255,831.901 689.971,834.812C684.686,837.723 679.334,840.502 673.913,843.15C668.492,845.798 663.009,848.311 657.465,850.69C651.92,853.069 646.321,855.31 640.667,857.413C635.012,859.517 629.31,861.481 623.559,863.304C617.808,865.127 612.015,866.809 606.182,868.348C600.349,869.887 594.481,871.283 588.579,872.534C582.678,873.785 576.749,874.89 570.792,875.85C564.836,876.81 558.86,877.623 552.864,878.289C546.868,878.956 540.859,879.475 534.837,879.846C528.816,880.217 522.789,880.441 516.756,880.516C510.726,880.591 504.698,880.519 498.671,880.298C492.645,880.077 486.628,879.709 480.619,879.193C474.611,878.677 468.619,878.014 462.643,877.204C456.667,876.394 450.715,875.438 444.786,874.336C438.857,873.233 432.958,871.986 427.091,870.594C421.223,869.203 415.393,867.668 409.601,865.99C403.808,864.312 398.061,862.493 392.358,860.533C386.655,858.573 381.003,856.474 375.403,854.236C369.803,851.999 364.261,849.625 358.778,847.116C353.295,844.606 347.876,841.963 342.522,839.188C337.168,836.413 331.886,833.507 326.675,830.472C321.464,827.437 316.33,824.277 311.274,820.99C306.218,817.703 301.246,814.294 296.357,810.763C291.468,807.232 286.669,803.584 281.959,799.817C277.25,796.05 272.635,792.171 268.116,788.178C263.597,784.185 259.179,780.083 254.861,775.874C250.543,771.664 246.331,767.351 242.225,762.934C238.119,758.517 234.124,754.003 230.239,749.39C226.354,744.777 222.585,740.072 218.932,735.274C215.279,730.476 211.745,725.591 208.331,720.62C204.917,715.649 201.627,710.598 198.462,705.465C195.296,700.332 192.258,695.125 189.348,689.843C186.438,684.561 183.659,679.211 181.011,673.793C178.364,668.375 175.851,662.895 173.472,657.353C171.093,651.812 168.852,646.215 166.749,640.563C164.645,634.912 162.681,629.212 160.857,623.464C159.033,617.716 157.351,611.927 155.811,606.096C154.271,600.265 152.875,594.401 151.623,588.502C150.371,582.603 149.264,576.676 148.303,570.723C147.342,564.77 146.528,558.796 145.86,552.803C145.192,546.81 144.672,540.803 144.299,534.784C143.926,528.765 143.7,522.741 143.623,516.711C143.546,510.681 143.616,504.653 143.835,498.626C144.054,492.599 144.42,486.582 144.934,480.574C145.448,474.565 146.109,468.573 146.917,462.597C147.725,456.621 148.679,450.668 149.779,444.739C150.88,438.81 152.125,432.911 153.515,427.043C154.904,421.174 156.437,415.344 158.114,409.551C159.79,403.758 161.607,398.01 163.565,392.306C165.523,386.603 167.62,380.951 169.856,375.35C172.091,369.749 174.463,364.206 176.971,358.722C179.478,353.237 182.119,347.818 184.893,342.463C187.667,337.108 190.57,331.825 193.603,326.613C196.636,321.401 199.796,316.266 203.081,311.209C206.366,306.152 209.774,301.178 213.303,296.289C216.832,291.399 220.479,286.598 224.244,281.887C228.009,277.176 231.887,272.561 235.878,268.04C239.87,263.52 243.97,259.1 248.178,254.781C252.387,250.462 256.699,246.248 261.114,242.141C265.529,238.033 270.043,234.036 274.654,230.15C279.265,226.264 283.969,222.494 288.766,218.839C293.563,215.184 298.446,211.648 303.416,208.233C308.386,204.818 313.437,201.526 318.569,198.359C323.7,195.191 328.906,192.151 334.187,189.239C339.468,186.328 344.818,183.547 350.235,180.898C355.652,178.249 361.131,175.734 366.672,173.353C372.213,170.972 377.808,168.729 383.459,166.624C389.11,164.518 394.81,162.552 400.557,160.726C406.304,158.9 412.093,157.216 417.923,155.675C423.753,154.133 429.617,152.735 435.516,151.481C441.415,150.227 447.341,149.118 453.294,148.155C459.247,147.192 465.22,146.376 471.213,145.706C477.206,145.036 483.212,144.514 489.231,144.139C495.25,143.764 501.274,143.536 507.304,143.457Z" style="fill:rgb(23,23,23);fill-rule:nonzero;"/>
    </g>
    <g transform="matrix(1,0,0,1,-133.12,-133.12)">
        <path d="M500.802,172.215C513.057,171.159 526.136,172.073 538.391,172.969C540.432,173.112 542.471,173.274 544.509,173.453C546.547,173.633 548.583,173.831 550.618,174.048C552.653,174.265 554.685,174.5 556.715,174.753C558.745,175.006 560.773,175.278 562.798,175.567C564.823,175.857 566.846,176.165 568.865,176.492C570.885,176.818 572.902,177.163 574.915,177.526C576.928,177.889 578.938,178.269 580.945,178.668C582.952,179.067 584.955,179.485 586.954,179.92C588.953,180.355 590.948,180.809 592.939,181.28C594.93,181.751 596.916,182.24 598.898,182.747C600.88,183.254 602.857,183.779 604.83,184.322C606.803,184.865 608.77,185.426 610.733,186.004C612.695,186.583 614.652,187.179 616.604,187.792C618.555,188.406 620.501,189.037 622.442,189.686C624.382,190.335 626.316,191.002 628.245,191.685C630.173,192.369 632.095,193.07 634.011,193.789C635.926,194.507 637.835,195.243 639.737,195.996C641.64,196.749 643.535,197.519 645.424,198.306C647.312,199.093 649.193,199.897 651.067,200.718C652.941,201.539 654.807,202.377 656.666,203.232C658.525,204.087 660.376,204.958 662.219,205.847C664.062,206.735 665.896,207.64 667.723,208.561C669.55,209.482 671.368,210.42 673.178,211.374C674.988,212.329 676.789,213.299 678.581,214.286C680.373,215.273 682.156,216.275 683.931,217.294C685.705,218.313 687.47,219.348 689.225,220.399C690.98,221.45 692.726,222.516 694.462,223.598C696.199,224.681 697.925,225.779 699.641,226.892C701.358,228.005 703.064,229.134 704.76,230.279C706.456,231.423 708.141,232.582 709.816,233.757C711.491,234.932 713.156,236.121 714.809,237.326C716.463,238.531 718.106,239.75 719.737,240.985C721.944,242.662 724.131,244.366 726.297,246.097C728.462,247.828 730.606,249.585 732.728,251.368C734.85,253.152 736.95,254.962 739.027,256.798C741.104,258.633 743.159,260.494 745.19,262.381C747.222,264.267 749.23,266.178 751.214,268.114C753.198,270.05 755.158,272.01 757.094,273.995C759.03,275.98 760.941,277.988 762.827,280.019C764.713,282.05 766.574,284.105 768.409,286.183C770.245,288.26 772.055,290.36 773.838,292.482C775.621,294.605 777.378,296.749 779.109,298.914C780.84,301.08 782.543,303.267 784.22,305.474C785.897,307.682 787.546,309.91 789.167,312.159C790.789,314.407 792.383,316.675 793.948,318.963C795.514,321.251 797.051,323.558 798.559,325.884C800.068,328.209 801.547,330.553 802.998,332.916C804.449,335.278 805.87,337.658 807.262,340.055C808.654,342.453 810.016,344.867 811.349,347.298C812.681,349.729 813.983,352.177 815.255,354.64C816.526,357.103 817.767,359.582 818.978,362.076C820.189,364.569 821.368,367.078 822.517,369.601C823.666,372.124 824.783,374.661 825.869,377.212C826.955,379.762 828.009,382.326 829.032,384.903C830.055,387.48 831.045,390.068 832.004,392.669C832.963,395.27 833.89,397.883 834.784,400.507C835.678,403.131 836.54,405.766 837.369,408.411C838.198,411.056 838.994,413.712 839.758,416.377C840.521,419.042 841.252,421.716 841.949,424.399C842.647,427.082 843.311,429.773 843.942,432.472C844.573,435.171 845.171,437.878 845.735,440.593C846.299,443.307 846.83,446.028 847.327,448.755C847.824,451.482 848.287,454.215 848.716,456.954C849.145,459.693 849.541,462.436 849.903,465.185C862.311,558.262 837.77,647.758 780.874,722.176C770.084,674.859 749.943,642.833 715.919,608.625C724.432,596.594 731.223,583.796 735.733,569.723C752.806,516.448 738.757,456.085 713.799,407.703C723.009,401.712 730.617,393.27 736.229,383.864C736.871,382.789 737.486,381.7 738.075,380.596C738.664,379.491 739.226,378.373 739.76,377.241C740.294,376.109 740.8,374.965 741.279,373.808C741.757,372.651 742.206,371.484 742.627,370.305C743.048,369.126 743.44,367.938 743.803,366.74C744.166,365.543 744.5,364.337 744.804,363.122C745.108,361.908 745.382,360.687 745.626,359.46C745.87,358.232 746.084,356.999 746.268,355.761C746.452,354.523 746.606,353.281 746.729,352.036C746.852,350.791 746.945,349.543 747.007,348.293C747.069,347.042 747.101,345.791 747.102,344.54C747.103,343.289 747.073,342.038 747.013,340.787C746.953,339.537 746.862,338.289 746.741,337.043C746.62,335.798 746.468,334.556 746.286,333.317C746.104,332.079 745.892,330.846 745.65,329.618C745.407,328.39 745.135,327.169 744.833,325.954C744.492,324.663 744.119,323.38 743.716,322.106C743.313,320.833 742.879,319.57 742.414,318.318C741.949,317.065 741.455,315.825 740.93,314.597C740.405,313.368 739.85,312.153 739.266,310.952C738.682,309.751 738.069,308.564 737.428,307.392C736.787,306.221 736.117,305.065 735.419,303.926C734.722,302.787 733.997,301.665 733.244,300.561C732.492,299.457 731.714,298.372 730.909,297.306C730.104,296.24 729.273,295.194 728.418,294.168C727.562,293.143 726.682,292.138 725.778,291.155C724.873,290.172 723.945,289.211 722.994,288.273C722.043,287.335 721.07,286.421 720.074,285.53C719.079,284.639 718.062,283.773 717.025,282.932C715.988,282.091 714.93,281.275 713.853,280.485C712.776,279.695 711.68,278.932 710.566,278.195C709.451,277.458 708.32,276.749 707.171,276.067C706.112,275.448 705.039,274.856 703.951,274.291C702.862,273.726 701.761,273.189 700.646,272.679C699.531,272.168 698.403,271.686 697.264,271.232C696.125,270.778 694.976,270.353 693.815,269.957C692.655,269.56 691.486,269.193 690.307,268.854C689.128,268.516 687.942,268.207 686.748,267.928C685.554,267.649 684.354,267.4 683.147,267.181C681.94,266.962 680.729,266.773 679.514,266.614C678.298,266.455 677.079,266.326 675.856,266.228C674.634,266.13 673.41,266.063 672.184,266.026C670.959,265.989 669.733,265.982 668.507,266.007C667.281,266.031 666.056,266.086 664.833,266.171C663.61,266.256 662.389,266.371 661.172,266.518C659.955,266.664 658.742,266.84 657.533,267.047C656.324,267.253 655.121,267.489 653.924,267.756C652.727,268.023 651.538,268.319 650.356,268.645C627.599,274.824 611.956,290.031 600.586,310.081C575.922,300.566 551.2,296.028 524.909,294.045C489.122,293.069 456.111,297.364 422.633,310.298C417.019,299.049 409.18,289.017 399.14,281.381C398.163,280.64 397.169,279.923 396.158,279.23C395.146,278.537 394.118,277.87 393.074,277.228C392.03,276.586 390.971,275.97 389.896,275.379C388.821,274.788 387.733,274.224 386.631,273.687C385.529,273.15 384.415,272.64 383.288,272.157C382.161,271.674 381.023,271.219 379.874,270.792C378.725,270.365 377.566,269.967 376.397,269.596C375.228,269.226 374.051,268.884 372.866,268.571C371.681,268.258 370.488,267.975 369.289,267.72C368.09,267.466 366.885,267.241 365.674,267.045C364.464,266.85 363.25,266.684 362.031,266.547C360.813,266.411 359.592,266.305 358.368,266.228C357.145,266.152 355.92,266.106 354.694,266.089C353.468,266.072 352.242,266.086 351.017,266.129C349.792,266.172 348.569,266.246 347.347,266.349C346.126,266.452 344.907,266.585 343.692,266.748C323.403,269.608 305.268,281.09 293.012,297.378C280.377,314.17 274.415,335.135 277.54,356.031C280.755,377.525 292.774,395.131 310.059,407.838C298.509,429.47 289.784,452.28 285.07,476.389C275.758,524.016 279.651,566.85 307.444,608.247C276.418,638.582 250.485,679.166 243.611,722.628C242.264,720.925 240.935,719.208 239.622,717.479C238.309,715.75 237.012,714.008 235.733,712.254C234.454,710.499 233.192,708.733 231.947,706.954C230.702,705.175 229.474,703.385 228.264,701.582C227.054,699.779 225.861,697.965 224.686,696.139C223.511,694.313 222.354,692.476 221.215,690.627C220.076,688.779 218.955,686.92 217.852,685.049C216.749,683.179 215.664,681.298 214.597,679.407C213.531,677.516 212.483,675.614 211.453,673.703C210.424,671.792 209.413,669.87 208.42,667.939C207.428,666.008 206.455,664.067 205.5,662.117C204.545,660.166 203.61,658.207 202.694,656.239C201.777,654.27 200.88,652.293 200.002,650.308C199.124,648.322 198.265,646.328 197.426,644.325C196.587,642.323 195.767,640.313 194.966,638.294C194.166,636.276 193.385,634.25 192.624,632.216C191.863,630.183 191.122,628.142 190.401,626.094C189.68,624.046 188.978,621.991 188.297,619.93C187.616,617.868 186.955,615.8 186.314,613.726C185.673,611.651 185.052,609.571 184.451,607.484C183.85,605.397 183.27,603.305 182.71,601.208C182.149,599.11 181.61,597.007 181.091,594.899C180.572,592.79 180.073,590.677 179.595,588.56C179.116,586.442 178.659,584.319 178.222,582.192C177.785,580.065 177.368,577.935 176.973,575.8C176.578,573.665 176.203,571.526 175.849,569.384C175.495,567.242 175.162,565.097 174.85,562.948C174.537,560.799 174.246,558.648 173.975,556.493C173.705,554.339 173.456,552.182 173.227,550.023C172.998,547.864 172.791,545.702 172.604,543.539C172.417,541.376 172.252,539.212 172.107,537.045C171.963,534.878 171.84,532.711 171.737,530.542C171.58,527.763 171.458,524.983 171.369,522.201C171.28,519.419 171.226,516.637 171.205,513.854C171.185,511.071 171.199,508.288 171.246,505.505C171.293,502.722 171.375,499.94 171.491,497.159C171.606,494.378 171.756,491.599 171.939,488.822C172.123,486.045 172.341,483.271 172.592,480.499C172.843,477.727 173.129,474.959 173.448,472.194C173.767,469.429 174.12,466.669 174.507,463.912C174.894,461.156 175.314,458.405 175.768,455.659C176.222,452.913 176.709,450.173 177.23,447.439C177.751,444.705 178.306,441.978 178.893,439.257C179.481,436.537 180.102,433.824 180.756,431.119C181.41,428.414 182.097,425.717 182.817,423.028C183.537,420.339 184.29,417.66 185.076,414.99C185.861,412.32 186.679,409.66 187.53,407.01C188.381,404.36 189.264,401.721 190.179,399.093C191.094,396.464 192.041,393.847 193.02,391.242C193.999,388.637 195.01,386.044 196.053,383.463C197.096,380.882 198.17,378.315 199.275,375.761C200.381,373.207 201.518,370.667 202.685,368.14C203.852,365.613 205.051,363.102 206.28,360.605C207.509,358.108 208.769,355.626 210.058,353.159C211.348,350.693 212.668,348.243 214.017,345.809C215.367,343.375 216.746,340.958 218.155,338.557C219.564,336.157 221.002,333.774 222.469,331.409C223.936,329.044 225.432,326.697 226.956,324.369C228.481,322.04 230.034,319.731 231.615,317.44C233.196,315.149 234.804,312.878 236.441,310.627C238.078,308.376 239.742,306.145 241.433,303.935C243.124,301.724 244.841,299.535 246.586,297.366C248.331,295.197 250.102,293.051 251.899,290.926C253.696,288.801 255.519,286.698 257.368,284.617C258.803,283.012 260.254,281.421 261.721,279.844C263.187,278.267 264.668,276.705 266.164,275.156C267.66,273.607 269.171,272.073 270.697,270.554C272.222,269.034 273.762,267.529 275.317,266.039C276.871,264.549 278.44,263.074 280.023,261.615C281.606,260.155 283.202,258.71 284.813,257.281C286.424,255.852 288.048,254.438 289.685,253.04C291.323,251.642 292.974,250.26 294.638,248.894C296.303,247.528 297.98,246.178 299.67,244.844C301.36,243.509 303.063,242.191 304.778,240.89C306.494,239.589 308.222,238.304 309.962,237.036C311.702,235.768 313.454,234.517 315.219,233.282C316.983,232.047 318.759,230.83 320.546,229.63C322.334,228.429 324.133,227.246 325.943,226.081C327.754,224.915 329.575,223.767 331.407,222.636C333.24,221.505 335.083,220.391 336.937,219.296C338.79,218.201 340.654,217.123 342.529,216.063C344.404,215.004 346.288,213.962 348.182,212.939C350.077,211.916 351.981,210.91 353.895,209.923C355.809,208.936 357.732,207.968 359.664,207.018C361.597,206.068 363.538,205.137 365.488,204.224C367.439,203.311 369.398,202.418 371.365,201.543C373.332,200.668 375.308,199.812 377.292,198.975C379.275,198.138 381.267,197.32 383.267,196.521C385.266,195.722 387.273,194.943 389.288,194.182C391.303,193.422 393.324,192.681 395.353,191.96C397.382,191.239 399.417,190.537 401.46,189.854C403.502,189.172 405.551,188.509 407.606,187.866C409.661,187.223 411.722,186.6 413.789,185.997C415.856,185.393 417.928,184.809 420.006,184.246C422.085,183.683 424.168,183.139 426.257,182.615C428.346,182.092 430.439,181.588 432.537,181.105C455.032,176.003 477.8,173.473 500.802,172.215Z" style="fill:rgb(18,138,128);fill-rule:nonzero;"/>
    </g>
    <g transform="matrix(1,0,0,1,-133.12,-133.12)">
        <path d="M316.45,458.532L335.133,461.357C333.465,468.793 332.226,476.222 332.13,483.862C331.866,504.953 339.811,526.026 354.652,541.127C355.526,542.012 356.421,542.875 357.338,543.716C358.255,544.557 359.192,545.374 360.149,546.168C361.106,546.963 362.082,547.733 363.077,548.479C364.072,549.225 365.086,549.946 366.117,550.642C367.148,551.338 368.195,552.008 369.259,552.652C370.323,553.296 371.402,553.913 372.497,554.504C373.592,555.095 374.7,555.658 375.823,556.193C376.946,556.729 378.081,557.237 379.229,557.716C380.376,558.196 381.535,558.647 382.705,559.069C383.875,559.491 385.055,559.884 386.244,560.248C387.434,560.612 388.632,560.946 389.838,561.25C391.044,561.555 392.257,561.829 393.476,562.074C394.695,562.318 395.92,562.532 397.151,562.716C398.381,562.9 399.615,563.053 400.853,563.176C402.09,563.299 403.33,563.391 404.573,563.452C405.815,563.513 407.058,563.544 408.302,563.544C429.277,563.703 449.313,555.912 464.164,541.004C482.583,522.514 488.123,501.172 488.015,475.87C489.521,475.049 491.09,474.317 492.651,473.608C507.078,467.053 521.675,469.097 536.028,474.554C535.648,483.704 535.827,492.558 538.017,501.498C543.132,522.384 556.761,541.788 575.281,552.886C593.121,563.577 615.31,566.179 635.376,561.051C636.555,560.744 637.726,560.408 638.889,560.043C640.052,559.678 641.205,559.285 642.349,558.863C643.492,558.442 644.625,557.992 645.746,557.514C646.867,557.037 647.975,556.532 649.072,555.999C650.168,555.467 651.251,554.908 652.32,554.323C653.389,553.737 654.442,553.125 655.481,552.488C656.52,551.85 657.542,551.187 658.547,550.5C659.553,549.812 660.542,549.099 661.513,548.362C662.484,547.625 663.436,546.865 664.369,546.082C665.302,545.298 666.216,544.492 667.109,543.663C668.003,542.834 668.876,541.984 669.727,541.113C670.578,540.241 671.408,539.349 672.216,538.436C673.023,537.523 673.808,536.591 674.57,535.64C675.332,534.689 676.07,533.719 676.783,532.732C677.497,531.744 678.186,530.739 678.851,529.717C679.515,528.696 680.154,527.658 680.767,526.605C692.458,506.67 694.102,483.32 688.319,461.253C694.577,460.753 700.879,459.637 707.104,458.788C708.861,464.673 710.462,470.599 711.907,476.568C717.018,503.08 719.697,528.811 712.578,555.391C703.192,590.431 678.004,616.405 647.199,634.066C584.295,670.129 497.763,673.665 428.922,654.985C387.258,643.68 344.312,620.753 322.368,582.059C300.541,543.572 305.272,499.339 316.45,458.532Z" style="fill:rgb(254,254,254);fill-rule:nonzero;"/>
    </g>
    <g transform="matrix(1,0,0,1,-133.12,-133.12)">
        <path d="M496.621,540.196C507.472,538.979 530.759,539.493 540.772,542.61C545.852,544.191 549.027,546.371 551.413,551.24C553.295,555.079 553.571,559.134 552.045,563.148C547.147,576.035 532.141,582.398 520.437,587.348L520.446,611.262C530.102,610.737 539.966,609.456 548.598,604.774C551.813,603.03 554.861,600.46 558.43,599.532C561.026,598.857 563.772,599.035 566.103,600.431C568.032,601.585 569.3,603.463 569.739,605.657C570.265,608.281 569.538,610.901 568.011,613.06C561.6,622.12 540.114,627.775 529.479,629.356C529.098,629.401 528.716,629.443 528.334,629.482C507.817,631.534 486.789,629.808 467.859,621.35C464.417,619.812 460.673,618.259 457.798,615.758C455.46,613.724 453.954,611.049 453.921,607.908C453.915,607.593 453.926,607.279 453.953,606.966C453.981,606.652 454.025,606.341 454.086,606.032C454.147,605.723 454.225,605.419 454.319,605.119C454.412,604.818 454.522,604.524 454.647,604.235C454.772,603.946 454.913,603.665 455.069,603.392C455.224,603.118 455.394,602.853 455.578,602.598C455.762,602.343 455.959,602.098 456.169,601.864C456.38,601.629 456.602,601.407 456.836,601.197C458.89,599.372 461.797,598.619 464.489,599.135C468.174,599.84 471.524,603.146 474.797,604.915C483.001,609.35 494.015,610.666 503.173,611.124L503.173,587.468C497.099,585.259 490.783,582.161 485.532,578.361C479.487,573.987 472.562,566.204 471.568,558.581C471.075,554.797 472.107,551.07 474.556,548.133C479.694,541.974 489.156,540.999 496.621,540.196Z" style="fill:rgb(23,23,23);fill-rule:nonzero;"/>
    </g>
    <g transform="matrix(1,0,0,1,-133.12,-133.12)">
        <path d="M499.316,710.716C508.462,709.779 518.405,710.388 527.583,710.861C562.312,712.654 614.574,719.607 639.108,746.366C645.183,752.991 648.901,760.161 652.766,768.154C661.764,786.76 671.799,795.371 691.154,802.397C680.127,808.915 669.045,815.225 657.443,820.678C617.158,839.61 571.218,851.213 526.625,852.029C455.65,853.835 394.746,839.044 333.665,802.415C353.465,794.714 363.023,785.854 372.303,766.759C375.708,759.753 379.009,753.21 384.267,747.388C409.803,719.119 463.138,712.435 499.316,710.716Z" style="fill:rgb(18,138,128);fill-rule:nonzero;"/>
    </g>
    <g transform="matrix(1,0,0,1,-133.12,-133.12)">
        <path d="M500.296,321.212C524.926,318.854 559.807,324.062 583.416,331.654C635.255,348.324 673.204,385.444 697.722,433.348C690.743,434.65 683.594,435.443 676.564,436.459C669.02,427.388 660.493,420.046 649.871,414.785C649.257,414.484 648.639,414.191 648.018,413.905C647.397,413.62 646.772,413.342 646.143,413.071C645.515,412.8 644.884,412.538 644.249,412.283C643.614,412.028 642.977,411.78 642.337,411.541C641.696,411.301 641.053,411.069 640.406,410.846C639.76,410.622 639.111,410.406 638.46,410.198C637.809,409.99 637.155,409.79 636.498,409.598C635.842,409.405 635.183,409.221 634.522,409.045C633.861,408.869 633.199,408.701 632.534,408.541C631.869,408.381 631.202,408.229 630.533,408.086C629.864,407.942 629.194,407.806 628.523,407.679C627.851,407.552 627.177,407.433 626.502,407.322C625.827,407.211 625.151,407.108 624.474,407.014C623.797,406.919 623.118,406.833 622.439,406.755C621.76,406.677 621.079,406.607 620.398,406.546C619.717,406.485 619.036,406.432 618.353,406.387C617.67,406.342 616.987,406.306 616.304,406.278C615.621,406.249 614.937,406.229 614.254,406.218C613.57,406.207 612.886,406.204 612.202,406.209C611.518,406.214 610.834,406.228 610.151,406.249C609.468,406.271 608.784,406.301 608.101,406.34C607.418,406.379 606.736,406.425 606.055,406.48C605.373,406.535 604.692,406.599 604.012,406.671C603.332,406.742 602.653,406.822 601.975,406.911C601.296,406.999 600.619,407.095 599.944,407.2C599.268,407.305 598.593,407.418 597.92,407.539C597.247,407.66 596.576,407.79 595.906,407.927C595.236,408.065 594.568,408.211 593.901,408.365C593.235,408.518 592.571,408.68 591.908,408.85C591.246,409.02 590.586,409.198 589.927,409.385C589.269,409.571 588.613,409.765 587.96,409.967C587.307,410.169 586.656,410.379 586.008,410.597C565.908,417.411 550.776,431.249 541.431,450.153C535.928,448.003 530.718,446.428 524.883,445.451C510.531,443.535 495.91,445.117 482.623,450.875C482.068,449.569 481.475,448.281 480.844,447.011C480.212,445.74 479.543,444.49 478.836,443.26C478.129,442.03 477.387,440.822 476.608,439.637C475.829,438.451 475.015,437.29 474.166,436.153C473.317,435.016 472.435,433.906 471.52,432.823C470.605,431.739 469.657,430.684 468.678,429.657C467.699,428.63 466.691,427.633 465.653,426.666C464.614,425.7 463.548,424.766 462.453,423.863C445.724,410 423.502,404.524 402.074,406.689C379.784,408.942 360.482,419.703 346.447,437.048C340.017,435.56 333.444,434.511 326.97,433.202C335.25,416.457 345.005,400.875 357.345,386.796C394.599,344.293 444.811,324.817 500.296,321.212Z" style="fill:rgb(254,254,254);fill-rule:nonzero;"/>
    </g>
    <g transform="matrix(1,0,0,1,-133.12,-133.12)">
        <path d="M405.071,431.201C417.513,429.867 430.683,432.61 441.201,439.444C452.132,446.545 460.341,457.659 462.908,470.54C465.894,485.531 459.833,505.066 451.515,517.501C443.547,529.412 430.425,535.683 416.717,538.374L415.795,538.486C401.556,540.113 388.748,536.889 377.445,527.894C365.814,518.637 358.93,505.604 357.382,490.833C355.8,475.731 360.03,460.167 369.794,448.422C378.813,437.571 391.305,432.548 405.071,431.201Z" style="fill:rgb(254,254,254);fill-rule:nonzero;"/>
    </g>
    <g transform="matrix(1,0,0,1,-133.12,-133.12)">
        <path d="M422.958,454.158C428.927,453.547 435.323,454.893 440.236,458.434C445.598,462.298 448.601,468.444 449.634,474.854C451.642,487.316 448.119,500.585 440.624,510.669C433.312,520.506 423.256,527.11 411.117,528.955C405.579,529.258 400.016,527.917 395.434,524.72C389.26,520.412 385.75,513.385 384.543,506.095C382.587,494.29 387.391,481.826 394.282,472.393C401.359,462.705 411.033,456.035 422.958,454.158Z" style="fill:rgb(23,23,23);fill-rule:nonzero;"/>
    </g>
    <g transform="matrix(1,0,0,1,-133.12,-133.12)">
        <path d="M605.472,431.293C606.343,431.157 607.216,431.043 608.091,430.95C608.967,430.857 609.845,430.785 610.725,430.735C611.604,430.686 612.484,430.658 613.365,430.651C614.246,430.645 615.126,430.66 616.007,430.697C616.887,430.734 617.766,430.792 618.643,430.873C619.52,430.953 620.394,431.055 621.267,431.178C622.139,431.301 623.008,431.446 623.873,431.612C624.738,431.778 625.598,431.965 626.454,432.174C627.31,432.383 628.16,432.612 629.005,432.862C629.85,433.113 630.687,433.384 631.518,433.675C632.349,433.967 633.173,434.279 633.989,434.611C634.805,434.943 635.612,435.295 636.411,435.667C637.21,436.039 637.998,436.43 638.777,436.841C639.556,437.252 640.325,437.681 641.083,438.13C641.842,438.579 642.588,439.046 643.323,439.531C644.058,440.016 644.781,440.52 645.491,441.041C646.202,441.562 646.899,442.1 647.583,442.655C648.266,443.21 648.936,443.782 649.592,444.371C650.247,444.959 650.888,445.563 651.514,446.183C652.14,446.803 652.75,447.438 653.345,448.087C653.94,448.737 654.518,449.401 655.08,450.08C655.641,450.758 656.186,451.45 656.714,452.155C657.242,452.86 657.752,453.578 658.245,454.309C658.737,455.039 659.211,455.781 659.667,456.535C660.123,457.288 660.56,458.053 660.979,458.828C661.397,459.603 661.796,460.388 662.176,461.183C662.555,461.978 662.915,462.782 663.255,463.595C663.595,464.407 663.915,465.227 664.215,466.056C664.514,466.885 664.793,467.72 665.052,468.562C665.311,469.404 665.548,470.252 665.765,471.105C665.982,471.959 666.177,472.818 666.352,473.681C666.526,474.545 666.679,475.412 666.811,476.283C666.943,477.154 667.053,478.027 667.142,478.904C667.231,479.781 667.298,480.659 667.343,481.538C667.388,482.418 667.412,483.298 667.415,484.179C667.417,485.06 667.397,485.941 667.356,486.82C667.315,487.7 667.252,488.579 667.167,489.456C667.083,490.333 666.977,491.207 666.849,492.078C666.722,492.95 666.573,493.818 666.403,494.682C666.232,495.546 666.041,496.406 665.828,497.261C665.615,498.116 665.382,498.965 665.128,499.808C664.873,500.651 664.598,501.488 664.303,502.318C664.007,503.147 663.691,503.969 663.355,504.784C663.019,505.598 662.663,506.403 662.287,507.2C661.911,507.997 661.516,508.784 661.102,509.561C660.687,510.338 660.254,511.105 659.801,511.861C659.349,512.617 658.878,513.361 658.389,514.094C657.9,514.827 657.394,515.547 656.869,516.255C656.345,516.962 655.804,517.657 655.245,518.338C654.686,519.019 654.111,519.686 653.52,520.339C652.928,520.992 652.321,521.629 651.698,522.252C651.075,522.875 650.438,523.483 649.785,524.074C649.132,524.665 648.465,525.24 647.784,525.799C647.103,526.358 646.408,526.899 645.7,527.423C644.993,527.948 644.273,528.454 643.54,528.943C642.807,529.432 642.063,529.903 641.307,530.355C640.551,530.808 639.784,531.241 639.007,531.655C638.23,532.07 637.443,532.465 636.646,532.841C635.849,533.217 635.044,533.573 634.23,533.909C633.415,534.245 632.593,534.561 631.763,534.856C630.934,535.152 630.097,535.427 629.254,535.681C628.411,535.936 627.562,536.169 626.707,536.382C625.852,536.595 624.992,536.786 624.128,536.956C623.263,537.127 622.395,537.276 621.524,537.403C620.658,537.53 619.789,537.635 618.917,537.719C618.046,537.804 617.173,537.867 616.299,537.908C615.424,537.949 614.549,537.969 613.674,537.968C612.799,537.967 611.924,537.944 611.049,537.9C610.175,537.856 609.302,537.79 608.431,537.703C607.56,537.616 606.691,537.508 605.825,537.379C604.96,537.25 604.098,537.099 603.239,536.928C602.38,536.756 601.527,536.563 600.678,536.35C599.829,536.137 598.985,535.903 598.148,535.648C597.31,535.393 596.479,535.118 595.655,534.823C594.831,534.528 594.015,534.212 593.206,533.877C592.397,533.542 591.597,533.187 590.806,532.813C590.015,532.438 589.233,532.045 588.46,531.632C587.688,531.219 586.927,530.788 586.176,530.338C585.425,529.888 584.685,529.42 583.957,528.934C583.229,528.448 582.513,527.944 581.81,527.423C581.107,526.902 580.416,526.364 579.739,525.809C579.062,525.254 578.399,524.682 577.75,524.095C577.101,523.508 576.466,522.905 575.847,522.286C575.228,521.667 574.624,521.034 574.035,520.386C573.446,519.738 572.874,519.076 572.317,518.4C571.761,517.724 571.222,517.035 570.699,516.332C570.177,515.63 569.672,514.915 569.185,514.188C568.697,513.461 568.227,512.722 567.776,511.972C567.325,511.222 566.892,510.461 566.478,509.69C566.064,508.919 565.669,508.137 565.293,507.346C564.917,506.555 564.561,505.756 564.224,504.948C563.887,504.14 563.571,503.324 563.274,502.501C562.977,501.677 562.701,500.847 562.445,500.01C562.188,499.173 561.953,498.33 561.738,497.481C561.523,496.632 561.329,495.779 561.156,494.921C560.983,494.062 560.831,493.2 560.7,492.335C560.569,491.47 560.46,490.601 560.371,489.73C560.282,488.859 560.215,487.987 560.17,487.112C560.124,486.238 560.1,485.363 560.097,484.488C560.094,483.612 560.112,482.737 560.152,481.863C560.192,480.988 560.253,480.115 560.336,479.244C560.419,478.372 560.523,477.503 560.648,476.636C560.773,475.77 560.919,474.907 561.087,474.048C561.254,473.189 561.443,472.334 561.652,471.484C561.861,470.634 562.09,469.789 562.341,468.95C562.592,468.111 562.863,467.279 563.154,466.454C563.445,465.628 563.757,464.81 564.088,464C564.419,463.189 564.77,462.388 565.141,461.595C565.512,460.802 565.901,460.018 566.31,459.244C566.719,458.47 567.147,457.706 567.593,456.953C568.04,456.2 568.504,455.458 568.987,454.728C569.469,453.997 569.969,453.279 570.487,452.573C571.005,451.867 571.54,451.174 572.091,450.495C572.643,449.815 573.211,449.149 573.795,448.497C574.38,447.845 574.98,447.208 575.595,446.585C576.21,445.962 576.841,445.355 577.486,444.764C578.131,444.172 578.791,443.596 579.464,443.037C580.137,442.478 580.824,441.935 581.524,441.409C582.223,440.883 582.936,440.375 583.661,439.884C584.386,439.393 585.122,438.92 585.87,438.465C586.618,438.01 587.377,437.573 588.146,437.155C588.915,436.738 589.694,436.339 590.483,435.959C591.272,435.58 592.069,435.22 592.876,434.879C593.683,434.538 594.497,434.218 595.319,433.917C596.141,433.616 596.97,433.335 597.806,433.075C598.642,432.815 599.484,432.575 600.331,432.356C601.179,432.137 602.032,431.939 602.889,431.762C603.746,431.585 604.607,431.428 605.472,431.293Z" style="fill:rgb(254,254,254);fill-rule:nonzero;"/>
    </g>
    <g transform="matrix(1,0,0,1,-133.12,-133.12)">
        <path d="M594.027,454.071C600.799,453.668 606.309,454.348 612.4,457.387C624.516,463.431 633.336,474.995 637.489,487.736C640.495,496.96 641.025,507.645 636.382,516.449C632.953,522.951 627.583,526.612 620.71,528.697C612.495,529.82 605.095,527.957 597.9,523.969C587.355,518.123 579.139,508.515 575.81,496.842C573.005,487.011 572.934,474.33 578.228,465.292C581.846,459.117 587.22,455.723 594.027,454.071Z" style="fill:rgb(23,23,23);fill-rule:nonzero;"/>
    </g>
</svg>
