<svg id="Layer_1" enable-background="new 0 0 510 510" height="300" viewBox="0 0 510 510" width="300" xmlns="http://www.w3.org/2000/svg" version="1.1" xmlns:xlink="http://www.w3.org/1999/xlink" xmlns:svgjs="http://svgjs.dev/svgjs"><g width="100%" height="100%" transform="matrix(1,0,0,1,0,0)"><g><g id="wink"><path d="m415.9 404.8c-31.2 21.8-66.5 33.1-103.8 38.4-18.9 2.7-38 3.8-56.9 5.6-38.9-1.4-77.1-6.3-113.6-19.9-35.9-13.3-67.2-33-88.2-66.2-15.4-23.9-21-50.5-19.4-78.7 1.9-34.3 10.4-67 27.2-97 35.5-63.4 89.1-100.5 161.5-110 32.4-4.5 65.3-2.3 96.8 6.2 55.3 15.2 97.1 48.1 125.9 97.3 19.4 32.9 30 70.3 30.8 108.5 1.1 49.7-20.2 87.8-60.3 115.8z" fill="#ffffff" fill-opacity="1" data-original-color="#ffffffff" stroke="none" stroke-opacity="1"/><path d="m490.5 247.8c-4.4-24.1-12.8-46.8-24.3-68.7-.8-1.5-.4-3.4.8-4.5 1.8-1.5 3.4-3 5-4.6 10.3-9.8 17.8-21.4 20.1-35.5 4.3-25.7-4.7-47.6-21.1-66.7-13.7-15.9-30.8-25.8-52.5-24.3-22.6 1.6-39.5 14-53 31.3-2.7 3.4-4.6 3.8-8.2 2-25.3-11.7-52-17.7-79.6-20-43.7-3.5-85.8 2.5-126.2 20.3-1.4.6-4.1-.3-5.3-1.4-6.3-5.9-11.6-12.8-18.4-18-14.3-11-30.5-17-48.8-13.4-24.7 4.9-40.9 20.8-52.2 42.3-16.9 31.7-11.4 62.8 15.2 86.2 3.2 2.8 2.8 4.8 1.1 8-16.9 32.1-26.4 67.5-27.9 103.8-2.4 55.9 19.5 100.1 64.3 133 37.8 27.8 81.4 40.4 127.3 46.2 34.8 4.3 70 4 104.7-1.1 36.1-5.3 70.5-15.4 102.2-33.9 29.9-17.6 53.7-41 68.3-73 16-35.1 15.2-71.4 8.5-108zm-74.6 157c-31.2 21.8-66.5 33.1-103.8 38.4-18.9 2.7-37.9 3.8-56.9 5.6-38.9-1.4-77.1-6.3-113.6-19.9-35.9-13.3-67.2-33-88.2-66.2-15.4-23.9-21-50.5-19.4-78.7 1.9-34.3 10.4-67 27.2-97 35.5-63.4 89.1-100.5 161.5-110 32.4-4.4 65.3-2.3 96.9 6.3 55.3 15.2 97.1 48 125.9 97.3 19.4 32.9 30 70.3 30.8 108.5 1 49.6-20.3 87.7-60.4 115.7z" fill="#14b8a6" fill-opacity="1" data-original-color="#000000ff" stroke="none" stroke-opacity="1"/><path d="m162.7 180.9c-51.7 5.2-86.3 59.7-70 109.2 6.9 21.1 24.7 34.1 45.4 33.6 3.5-.4 7.2-.3 10.6-1.2 38-10.5 63.5-34.7 72.9-72.8 10.7-43.6-20.4-72.7-58.9-68.8zm34.2 73.5c-8-12.2-20.5-20.1-34.7-20.1s-26.7 7.9-34.7 20.1c-.4.6-1.1.7-1.7.3-.4-.3-.6-.8-.5-1.3 3.1-24.1 18.4-42.4 36.9-42.4s33.8 18.3 36.9 42.4c.1.7-.3 1.3-1 1.4-.4.2-.9 0-1.2-.4z" fill="#14b8a6" fill-opacity="1" data-original-color="#000000ff" stroke="none" stroke-opacity="1"/><path d="m420.3 252.2c-5.2-36.2-29.9-63.3-64.1-70.2-44.4-9-77.5 23.4-67 67.4 8.9 37.3 33.9 61.4 70.4 72.4 15.1 4.6 30.4 2.2 42.9-8.4 14.1-12 19.1-28.1 19.4-46.2-.6-4.9-.9-10-1.6-15zm-37.7 2.2c-8-12.2-20.5-20.1-34.7-20.1s-26.7 7.9-34.7 20.1c-.4.6-1.1.7-1.7.3-.4-.3-.6-.8-.5-1.2 3.1-24.1 18.4-42.4 36.9-42.4s33.8 18.3 36.9 42.4c.1.7-.3 1.3-.9 1.5-.5 0-1-.2-1.3-.6z" fill="#14b8a6" fill-opacity="1" data-original-color="#000000ff" stroke="none" stroke-opacity="1"/><path d="m256.9 345.4c-12.7 11.4-27.1 18.4-43.9 20-12.6 1.2-24.6-1.5-36.2-6-4.8-1.7-7.3-6.9-5.7-11.7 0-.1.1-.2.1-.2 1.8-5 6.9-7.3 12.4-5.4 10.6 3.6 21.1 5.9 32.5 3.9s20.7-7.5 28.8-15.2c3.9-3.7 3.4-6.2-1-9.3-7-5-14.5-9.4-20.6-15.4-13.1-13-8.1-30.3 9.9-34.5 15.6-3.6 31.8-3.6 47.3 0 18.4 4.2 23.3 21.8 9.7 34.9-6 5.8-13.3 10.2-20.2 15-4.8 3.4-5.2 5.6-.9 9.6 15.8 14.8 34.1 19.3 55 13.1 1.8-.5 3.5-1.2 5.3-1.8 6-2 11.2 0 13.1 4.9 2 5.1-.4 10.3-6.3 12.5-15.6 5.8-31.4 8-47.8 3.4-11.8-3.3-21.9-9.4-31.5-17.8z" fill="#14b8a6" fill-opacity="1" data-original-color="#000000ff" stroke="none" stroke-opacity="1"/></g></g></g></svg>